<svg version="1" xmlns="http://www.w3.org/2000/svg" width="1365.333" height="1365.333" viewBox="0 0 1024.000000 1024.000000"><path d="M76.3 1.5C66.2 3.3 59.7 5.6 50 10.7 26.6 23 10.2 43.4 2.8 69.5l-2.3 8-.3 263.7L0 605h1024l-.2-263.8-.3-263.7-2.3-8C1012 36.8 987 11.8 954.5 2.7l-8-2.2L515 .3C164.2.2 82.2.4 76.3 1.5zM377.9 81c19.8 2.1 32.7 6.7 41.4 14.9 9.3 8.7 13.7 21.1 13.7 38.1 0 16.5-4.8 29.5-15 40.4-6.6 7-12.6 10.6-21.7 13.2l-6.3 1.7 5.4 2.2c14 5.7 23.1 16.6 27.2 32.6 2 7.7 1.5 24-1.1 33.4-7.4 27.6-32.7 48.1-66.4 54-6.8 1.2-21 1.5-76.2 1.5-37.4 0-67.9-.3-67.9-.8-.1-.4 10.8-52.8 24.2-116.5L259.5 80h54.1c30.2 0 58.7.5 64.3 1zm383.6 61.9c17 4.5 27.4 11.7 33.4 23.1 3.4 6.3 6.1 16.7 6.1 23.8v4.2l-21.7-.2-21.8-.3-.7-4.8c-.9-6.7-4.6-12-10.5-14.8-4.2-2.1-6.2-2.4-16.3-2.4-10.5 0-12 .2-17 2.7-6.5 3.2-9 6.8-9 13.1 0 9 4.9 12.1 33 21 23.9 7.7 34.4 12.9 43 21.5 8.4 8.5 11.1 14.7 11.8 27.7.8 16.2-3.3 27.1-14.2 38.1-31.2 31.3-107.8 29.2-129.7-3.6-5-7.6-7-13.9-7.6-24.8l-.6-9.2h43l.7 6.1c.8 7.7 3.3 11.9 9.4 15.7 8.2 5.1 10.8 5.7 23.7 5.7 11.3 0 12.3-.2 18-3 7.9-3.9 10.5-7.8 10.5-15.6 0-13.3-2-14.7-36-25.4-11.8-3.7-24.7-8.2-28.5-10-16.4-7.8-23.5-19.1-23.5-37.5 0-26.7 17.6-44.7 51.1-51.9 13.1-2.9 41.3-2.4 53.4.8zM524 145.2c0 .7-5 25.1-11 54.3-12.5 60.1-13.3 65.1-10.2 71.2 5.4 10.5 22.8 13.2 38.7 5.9 10.5-4.8 20.9-18 25.9-32.8.8-2.6 5.8-25 11.1-49.9 5.2-24.8 9.8-46.2 10.1-47.5l.6-2.4h22.9c17.6 0 22.9.3 23 1.2 0 .7-7.8 38.8-17.3 84.5L600.5 313h-22.2c-13.6 0-22.3-.4-22.3-1 0-1 3.7-17.4 4.7-20.5.3-1.1-3.3 1.7-8.1 6.3-14.9 14.1-29.4 19.6-51.6 19.6-14.5 0-23.4-2.1-31.6-7.6-14.1-9.5-19.8-28.6-15.5-51.8 1.5-7.8 23-109.8 23.7-112.3.5-1.6 2.5-1.7 23.5-1.7 17.6 0 22.9.3 22.9 1.2zM348 359.9c0 1.1-7.8 37.9-8.6 40.3-.5 1.7-3.1 1.8-35.3 1.8h-34.7l-19.9 95-19.9 95h-25.8c-16.3 0-25.8-.4-25.8-1 0-.5 8.8-42.8 19.5-93.9 10.7-51.2 19.5-93.5 19.5-94.1 0-.7-11.9-1-36-1-28.1 0-36-.3-36-1.3 0-1.4 7.8-38.5 8.5-40.5.3-.9 20.8-1.2 97.5-1.2 56 0 97 .4 97 .9zm70.5 2.3c-.4 1.8-2.3 10.5-4.3 19.3l-3.7 16-23.3.3c-19.8.2-23.2 0-23.2-1.2 0-.8 1.5-8.1 3.4-16.3 1.9-8.1 3.7-16.3 4.1-18.1l.7-3.2h46.9l-.6 3.2zm137.2 58.2c13.9 3.7 21.9 11.1 26.7 24.9.5 1.5 1.5.8 6.2-4.2 7-7.6 17.9-14.5 29.2-18.4 7.1-2.5 10.8-3.1 19.7-3.5 18-.7 30.6 3.4 41.6 13.5 7.9 7.4 11.1 14.8 11.7 27 .4 8.7-.2 12.3-12.4 70.7L665.5 592h-23.2c-12.8 0-23.3-.3-23.3-.8 0-.4 5.2-25.4 11.5-55.6 11.7-56 12.9-64 10.1-69.5-2.2-4.2-8.1-8.9-12.1-9.7-10.1-1.9-21.2 1.3-29.3 8.2-5.2 4.4-13.4 16.6-16.2 24.1-1.2 3.2-6.8 27.6-12.4 54.3l-10.3 48.5-23.5.3c-22.2.2-23.6.1-23.2-1.5 5.2-21.9 22.6-110.4 22.7-115.5.1-8.3-2.8-13.4-9.8-16.8-6.7-3.2-17.9-2.6-25.4 1.5-9.7 5.3-19.3 17.7-24.4 31.6-1.4 3.5-6.9 27.7-12.3 53.6l-9.8 47.3h-23.3c-12.8 0-23.3-.2-23.3-.4 0-.3 7.9-38 17.5-83.9 9.6-45.9 17.5-83.7 17.5-84.1 0-.3 10.2-.6 22.6-.6 21 0 22.5.1 22 1.7-.7 2.3-4.6 20.1-4.6 20.9 0 .4 2.7-2.1 6.1-5.5 10-10.3 21.1-16.5 35.4-19.6 8-1.8 24.7-1.8 31.2-.1zm276.7 1.6c17.2 4.6 32.1 15 40.7 28.3 9.3 14.4 13 37.3 9.6 60.2l-1.2 8-62.4.3-62.3.2.4 10.3c.3 8 .9 11.1 2.6 14.4 3.4 6.6 7.8 11 14 14 5.3 2.6 6.5 2.8 18.2 2.8 12 0 12.7-.1 17.8-3 5.4-2.9 13.6-11 16.9-16.6l1.7-2.9h22.8c21.1 0 22.8.1 22.8 1.7 0 3.2-8.9 19.6-14.6 27-13 17-31.4 26.3-57.5 29.4-25.6 2.9-50.5-2.7-65.1-14.9-15.8-13.2-23.3-29.9-24.5-54.2-2.2-47.3 25.1-91 64.7-103.8 10.8-3.5 15.8-4.1 32-3.8 11.9.3 17.3.9 23.4 2.6zM405 424.2c0 .7-7.9 38.8-17.7 84.5L369.6 592h-23.3c-17 0-23.3-.3-23.3-1.2 0-1.6 35.1-166.1 35.7-167.1.2-.4 10.7-.7 23.4-.7 17.6 0 22.9.3 22.9 1.2z"/><path d="M300.6 121.7c-.9 3.1-10.6 49.9-10.6 51.2 0 .9 7.6 1.1 34.3.9l34.2-.3 5.6-2.6c11.4-5.4 17.2-14.3 17.3-26.4 0-8.7-1.5-13.2-5.7-17.3-6.6-6.4-7.9-6.6-42.9-7-30-.3-31.6-.3-32.2 1.5zM281.7 212.2c-1.4 5.3-12.7 58.9-12.7 59.9 0 .7 11.9.9 37.8.7 36.5-.3 37.9-.4 43.4-2.6 7.2-2.9 15.2-10 18.4-16.4 4.4-8.7 5-23.1 1.2-30.3-2-3.7-6.3-7.8-10.3-9.8-6-3-14.8-3.7-46.1-3.7h-31.2l-.5 2.2zM797.2 455c-14.2 3-26.1 13.6-33 29.2l-2.1 4.8h77.1l-.6-5.8c-1.8-14.7-6.2-22-15.9-26.2-5.8-2.6-18.1-3.5-25.5-2zM.2 874.7c.3 70.5.4 71.9 2.6 79.8 9 32.6 34.6 58.1 67.2 66.7l8.5 2.3h867l8.5-2.2c32.4-8.6 58-34 67.2-66.8 2.2-7.9 2.2-9 2.6-79.8l.3-71.7H-.1l.3 71.7zm309.2-50.5c3.1 3.5 5.6 6.6 5.6 6.9 0 .4-1.5 1.8-3.4 3.3l-3.5 2.6-6.4-6.5-6.4-6.6 3.6-3c1.9-1.6 3.9-2.9 4.2-2.9.4 0 3.2 2.8 6.3 6.2zm221.9-.2c3 0 3.6 2 1.2 4-1.1.9-1.5 2.7-1.3 5.9l.3 4.6 12.8.3 12.7.3V852h-26v10.9l15.8.3 15.7.3v13l-7.8.3-7.8.3.3 6.2.3 6.2 7.3.3 7.2.3V903h-15v16.2c0 11-.4 17.1-1.3 18.8-1.7 3.5-7 5.7-15.3 6.5l-7.1.7-3.2-7.9c-1.7-4.3-3.1-8.1-3.1-8.5 0-.4 3-.8 6.8-1l6.7-.3.3-12.3.3-12.2H488v-13h43v-13h-43v-14h27v-11h-23v-13h23V822.7l6.8.6c3.7.4 7.9.7 9.5.7zm250-.3c3 .4 3.7.9 3.1 2.2-.4.9-.9 2.6-1.1 3.8l-.5 2.3 24.3.2 24.4.3.3 6.2.3 6.3h-49.2l.3 2.7.3 2.8 17.3.3 17.2.2v12l-17.2.2-17.3.3-.3 3.2-.3 3.3H835v13H818.7l4.7 5c2.5 2.7 4.6 5.4 4.6 5.9 0 .6-1.2 1.4-2.7 1.7-1.6.4-5 2.6-7.8 4.9-2.7 2.3-6.5 5.2-8.2 6.4-1.8 1.2-3.3 2.6-3.3 3.1 0 1.7 11.4 9.5 20.6 14l9.2 4.6-2.2 2.5c-1.1 1.3-3.5 4.2-5.3 6.3l-3.1 3.8-5.6-2.5c-14.2-6.5-30.9-21.5-40.6-36.2-2.6-4.1-5-8-5.2-8.6-.2-.6-3.3.9-7.1 3.6l-6.7 4.7v8.9c0 7.8.2 8.9 1.8 8.9.9 0 6.9-1.3 13.2-2.9 6.3-1.7 11.7-2.8 11.9-2.5.3.2.7 3.1.9 6.4l.4 5.9-11.3 3.5c-13.9 4.2-30.2 8.9-38.9 11.1-3.6.9-7.1 2.4-7.8 3.3-1.2 1.6-1.4 1.6-2.7-.2-.8-1-2.5-5.1-3.9-9.2l-2.4-7.3 4.6-.6c2.6-.4 7.6-1.2 11.2-1.9l6.5-1.2.3-6.6.3-6.7-8.3 3.9c-12.8 5.9-12.5 5.9-18.2-.5-2.6-3.1-4.7-5.7-4.5-5.9.2-.2 3.8-1.6 7.9-3.1 10.7-3.9 25.4-11.7 32.9-17.3l6.3-4.7-22.6-.3-22.6-.2v-13h51.1l-.3-3.3-.3-3.2-16.7-.3-16.8-.2v-12l16.8-.2 16.7-.3.3-2.8.3-2.7H719v-13h47v-9h5.8c3.1 0 7.4.3 9.5.7zm-155.9 2.4c.6.5.3 1.6-.7 2.7-1 1-1.7 3.5-1.7 5.5v3.7h23v15h-23.5l-2.9 5.3c-1.6 2.8-4.9 8.1-7.4 11.6l-4.4 6.3 2 2 2 2.1 6.2-8.3c3.4-4.6 6.8-9.7 7.7-11.4 2.9-5.7 2.9-5.7 10.5-1.2 7.8 4.5 9.1 6.2 6 7.4-1.2.4-5 4.9-8.7 9.9-10.8 15.2-28.3 31.6-39.9 37.5l-3.9 2-5.3-5.3c-3-2.9-5.4-5.6-5.4-5.9 0-.3 3.3-2.2 7.3-4.3 9.5-5 13.1-8.1 11.8-10.5-1-1.9-9.7-10.3-14.5-14-3.2-2.5-3.1-2.8 3.7-10.6l3.4-4 3 2.2c2.4 1.7 3.3 1.9 4.1.9 1.5-1.8 5.2-9.5 5.2-10.7 0-.6-4.1-1-11-1h-11v-15h26v-14.2l8.8.7c4.8.4 9.1 1.1 9.6 1.6zm68.8-.5c4.5.7 5.5 1.9 3.4 4.3-1.3 1.5-1.6 8.1-1.8 53.2-.3 47.2-.4 51.7-2.1 54.2-2.6 4-7.3 6-15.7 6.5l-7.6.4-3.3-7.3c-1.8-4.1-3.5-8-3.8-8.7-.5-1.1.8-1.2 6.6-.6 5.1.5 7.5.3 8.6-.6 1.3-1.1 1.5-8 1.5-52.2v-51l5.3.6c2.8.4 6.9.9 8.9 1.2zm-398.3 9c2.8 3 5.1 5.9 5.1 6.4 0 1.1-6.1 6.2-7 5.8-.4-.2-3.1-2.9-6-6.1l-5.3-5.8 2.8-2.9c1.6-1.7 3.4-3 4.1-3 .7 0 3.5 2.5 6.3 5.6zm114.9 5.5l5.1 5.6-3.3 3.2c-2 1.9-4.8 6.6-6.6 11-1.8 4.2-5.5 11.6-8.3 16.5l-5 8.9 5.4 4.5c3 2.5 11.2 10.3 18.4 17.3l12.9 12.8-5.9 6.4c-3.3 3.6-6.3 6.5-6.6 6.6-.3 0-4.6-4.5-9.5-10.2-5-5.6-12.5-13.3-16.7-17.1l-7.7-6.8-9.8 9.4c-10.1 9.7-18.4 15.7-30.9 22.4l-7.2 3.9-6-6c-3.4-3.3-6.1-6.2-6.1-6.5 0-.4 4.2-2.8 9.4-5.3 17-8.5 33.5-22.4 44.1-37.3 4.8-6.7 13.5-22.9 13.5-25.2 0-.9-6-1.2-26.5-1.2H337v-16h31.3c25.1-.1 31.7-.3 33.7-1.5 1.4-.8 2.8-1.3 3.1-1.2.4.1 2.9 2.7 5.7 5.8zm257-4.5c2.7.5 2.9 3 .2 4.4-1.9 1-2 2.1-2 38.5V916h-15v-82.1l7.3.6c3.9.3 8.2.8 9.5 1.1zm-184 42.6l-.3 43.3-7.2.3c-7.2.3-7.3.3-7.3-2.3 0-2.4-.2-2.5-6-2.5h-6v10h-14v-92h41l-.2 43.2zM282 853.7c8.1 12.4 18.3 32.7 23.3 46.3 5.7 15.5 6.1 13.5-3.9 18-4.8 2.2-8.8 3.9-8.9 3.8-.1-.2-1.2-4.1-2.4-8.8-4.6-17.2-15.4-40.2-26-55.3-2.3-3.2-4.1-6.1-4.1-6.5 0-.7 12.9-8.1 14.3-8.2.4 0 3.9 4.8 7.7 10.7zm-52.3-8.2c3.7.9 7.9 2 9.2 2.6l2.4 1-2.6 2.7c-1.5 1.6-3.2 5.3-4.1 8.9-2.9 11.3-8.7 26.7-14.3 37.7-5.4 10.9-14.3 25.5-16.6 27.4-.9.8-3.7 0-9.7-2.5-4.7-2-8.7-3.8-8.9-3.9-.2-.2 1.3-2.2 3.3-4.5 12.2-13.5 25-40.3 30.1-63.2 1.1-4.9 2.2-7.7 3-7.7.8 0 4.4.7 8.2 1.5zm411.8 42.1c6.4 4.5 8.3 7.4 4.8 7.4-1 0-4.3 3.3-7.6 7.6l-5.9 7.5 10.1 9.6c5.6 5.2 10.1 10 10.1 10.7 0 .7-2.3 4-5.2 7.3l-5.2 6.1-10.7-11.2-10.6-11.1-4.9 4.5c-5.9 5.5-16.3 12.9-22.3 16-3.7 1.8-4.7 2-6.7 1-2.5-1.4-11-9.8-10.3-10.2.2-.2 4.7-2.4 9.9-5 16.2-8 32.3-22.7 42.7-38.9 2.1-3.2 4.1-5.9 4.5-5.9.4 0 3.7 2.1 7.3 4.6zm-133.4 21.9c3.6 3 7.2 6.6 7.9 7.9 1.1 2.2.9 2.8-3.1 7.5l-4.4 5.1-4.5-4.8c-2.5-2.6-6.2-6.2-8.3-7.8l-3.8-3.1 4.3-5.1c2.4-2.9 4.5-5.2 4.8-5.2.3 0 3.5 2.5 7.1 5.5z"/><path d="M785 883.6c0 .9 6.7 11.6 9 14.2l2 2.4 3.4-2.2c3.7-2.2 13.6-12.5 13.6-14.1 0-.5-6.2-.9-14-.9-7.7 0-14 .3-14 .6zM457 858.5v9.5h12v-19h-12v9.5zM457.2 892.2l.3 10.3 5.8.3 5.7.3V882h-12.1l.3 10.2z"/></svg>